<svg width="193" height="193" viewBox="0 0 193 193" fill="none" xmlns="http://www.w3.org/2000/svg">
<rect width="193" height="193" rx="27" fill="#D9D9D9"/>
<rect x="30.6349" y="28" width="131.73" height="137" rx="23" fill="#020101"/>
<path d="M83.7845 118.325L80.5405 116.961L80.5405 116.961L83.7845 118.325ZM107.115 88.7311L109.284 91.4581L109.369 91.393L109.45 91.3229L107.115 88.7311ZM122.472 75.4266L82.4508 83.4551L109.414 113.382L122.472 75.4266ZM80.5352 125.693L83.7792 127.056L87.0285 119.688L83.7845 118.325L80.5405 116.961L77.2912 124.329L80.5352 125.693ZM83.7845 118.325L87.0285 119.688C91.9163 108.604 99.5705 98.8953 109.284 91.4581L107.115 88.7311L104.946 86.0042C94.294 94.1597 85.9004 104.807 80.5405 116.961L83.7845 118.325Z" fill="white"/>
</svg>
