<svg width="189" height="193" viewBox="0 0 189 193" fill="none" xmlns="http://www.w3.org/2000/svg">
<rect width="189" height="193" rx="27" fill="#D9D9D9"/>
<rect x="30" y="28" width="129" height="137" rx="23" fill="#020101"/>
<path d="M82.0472 118.327L78.834 116.939L82.0472 118.327ZM104.895 88.7311L107.051 91.4884L107.134 91.423L107.214 91.3526L104.895 88.7311ZM119.934 75.4266L80.3306 83.4824L107.109 113.752L119.934 75.4266ZM82.0793 127.081L85.2604 119.714L78.834 116.939L75.6529 124.305L82.0793 127.081ZM85.2604 119.714C90.0469 108.63 97.5394 98.9249 107.051 91.4884L102.739 85.9739C92.3047 94.1321 84.0851 104.779 78.834 116.939L85.2604 119.714Z" fill="white"/>
</svg>
